<svg viewBox="0 0 14 14" xmlns="http://www.w3.org/2000/svg"><path d="m13 7q0 1.21875-.47656 2.328125-.47656 1.109375-1.28125 1.914062-.80469.804688-1.91406 1.28125-1.10938.476563-2.32813.476563-1.34375 0-2.55469-.566406-1.21093-.566406-2.0625-1.597656-.0547-.07813-.0508-.175782.004-.09766.0664-.160156l1.07031-1.078125q.0781-.07031.19531-.07031.125.01562.17969.09375.57031.742187 1.39844 1.148437.82815.406248 1.75784.406248.8125 0 1.55078-.316406.73828-.316406 1.27734-.855469.53907-.539063.85547-1.277344.31641-.738281.31641-1.550781 0-.8125-.31641-1.550781-.3164-.738281-.85547-1.277344-.53906-.539063-1.27734-.855469-.73828-.316406-1.55078-.316406-.76563 0-1.46875.277344-.70313.277344-1.25.792968l1.07031 1.078126q.24219.234375.10938.539062-.13282.3125-.46094.3125h-3.5q-.203125 0-.351563-.148438-.148437-.148437-.148437-.351562v-3.5q0-.328125.3125-.460937.304688-.132813.539062.109374l1.015628 1.007813q.83593-.789063 1.91015-1.222656 1.07422-.433594 2.22266-.433594 1.21875 0 2.32813.476562 1.10937.476563 1.91406 1.281251.80469.804687 1.28125 1.914062.47656 1.109375.47656 2.328125zm-5-2.25v3.5q0 .109375-.0703.179688-.07032.070312-.1797.070312h-2.5q-.10938 0-.17969-.07031-.07031-.070315-.07031-.17969v-.5q0-.109375.0703-.179687.07032-.070313.1797-.070313h1.75v-2.75q0-.109375.0703-.179687.07033-.070313.1797-.070313h.5q.10938 0 .17969.07031.07031.070315.07031.17969z"/></svg>